<?xml version="1.0" encoding="UTF-8"?> <!-- Generator: Adobe Illustrator 18.0.0, SVG Export Plug-In . SVG Version: 6.00 Build 0) --> <svg xmlns="http://www.w3.org/2000/svg" xmlns:xlink="http://www.w3.org/1999/xlink" id="Ebene_1" x="0px" y="0px" viewBox="0 0 283.3 72.6" xml:space="preserve"> <g> <polyline fill-rule="evenodd" clip-rule="evenodd" fill="#FFFFFF" points="99.4,0 98.5,8.2 94.5,8.2 91.2,38.6 78.9,38.6 82.1,8.2 75.4,8.2 76.2,0 99.4,0 "></polyline> <polyline fill-rule="evenodd" clip-rule="evenodd" fill="#FFFFFF" points="221.7,0 234.1,0 231,30.2 241.1,30.2 240.1,38.6 217.7,38.6 221.7,0 "></polyline> <polyline fill="#FFFFFF" points="73,0 60.7,0.1 60,7.4 72.3,7.4 73,0 "></polyline> <polyline fill="#FFFFFF" points="56.7,38.6 69,38.6 71.8,11.4 59.5,11.4 56.7,38.6 "></polyline> <polyline fill="#FFFFFF" points="196.1,6.4 199.4,6.4 201.1,23.8 195.9,23.8 193.3,32.7 201.9,32.7 202.4,38.6 214,38.6 210.5,0 188.6,0 175.7,38.6 186.7,38.6 196.1,6.4 "></polyline> <polyline fill-rule="evenodd" clip-rule="evenodd" fill="#FFFFFF" points="122.6,0 123.4,8.2 117.6,8.2 114.3,38.6 102,38.6 105.3,8.2 100.7,8.2 101.5,0 122.6,0 "></polyline> <path fill="#FFFFFF" d="M247.2,0l-0.8,7.4l13,0c0,0,9.8-0.8,11.2,6.4c0,0,0.7,6-1.4,12.4c-2.1,6.4-12.6,4.9-12.6,4.9l2-19.2 l-12.7,0l-2.8,26.7l27.7,0c0,0,10.2-2.6,12.2-16.7c2-14.2-4.2-21.8-9.5-21.8H247.2"></path> <path fill-rule="evenodd" clip-rule="evenodd" fill="#FFFFFF" d="M136.6,0h-11.3l4.6,38.6h12.7l8.2-22.5c0,0,0.1-0.7,0.8-0.7 c0.6,0,0.7,0.7,0.7,0.7l4.1,22.5h12.9L182.1,0h-11.5l-6,19.2c0,0-0.1,0.7-0.9,0.7c-0.8,0-1-0.8-1-0.8L159.6,0H147l-7,19.4 c0,0-0.3,0.6-0.9,0.6c-0.6,0-0.8-0.6-0.8-0.6L136.6,0"></path> <path fill-rule="evenodd" clip-rule="evenodd" fill="#FFFFFF" d="M25.6,0H12.8L0,38.6h11.3l5.7-18c0,0,0.2-0.6,0.8-0.6 c0.6,0,0.8,0.5,0.8,0.5l0.3,18h14.9L42,20.4c0,0,0.2-0.4,0.8-0.4c0,0,0.7,0,0.8,0.7l-2.2,17.9h10.8L56,0H40.4l-8.8,22.1 c0,0-0.3,0.5-1,0.7c-0.8,0.2-1-0.8-1-0.8L25.6,0"></path> </g> <path fill="#FFFFFF" d="M15.4,68.1h-1.7l-3.7-13h0l-3.8,13H4.4L0.2,53.4h1.5l3.6,13h0l3.8-13h1.7l3.7,13h0l3.7-13h1.4L15.4,68.1z"></path> <path fill="#FFFFFF" d="M28.3,67.8c-0.9,0.4-2.1,0.6-3.1,0.6c-3.6,0-4.9-2.4-4.9-5.6c0-3.3,1.8-5.6,4.5-5.6c3,0,4.3,2.4,4.3,5.3v0.7 h-7.3c0,2.3,1.2,4.1,3.5,4.1c1,0,2.4-0.4,3-0.8V67.8z M27.6,62c0-1.9-0.8-3.7-2.7-3.7c-2,0-3.2,2-3.2,3.7H27.6z"></path> <path fill="#FFFFFF" d="M31.5,52.3h1.3v6.8h0c0.2-0.5,1.2-2.1,3.3-2.1c3.2,0,4.4,2.4,4.4,5.6c0,3.2-1.5,5.6-4.4,5.6 c-1.5,0-2.6-0.6-3.3-2h0v1.7h-1.3V52.3z M36,58.3c-2.4,0-3.2,2.5-3.2,4.5s0.8,4.5,3.2,4.5c2.5,0,3.2-2.4,3.2-4.5S38.5,58.3,36,58.3z "></path> <path fill="#FFFFFF" d="M43.3,52.3h1.3v6.8h0c0.6-1.2,1.8-2.1,3.3-2.1c2.9,0,3.7,1.9,3.7,4.6v6.4h-1.3v-6.4c0-1.8-0.4-3.4-2.5-3.4 c-2.4,0-3.2,2.2-3.2,4.1v5.7h-1.3V52.3z"></path> <path fill="#FFFFFF" d="M59.2,57.1c3.5,0,5,2.7,5,5.6c0,2.9-1.5,5.6-5,5.6c-3.5,0-5-2.7-5-5.6C54.2,59.8,55.7,57.1,59.2,57.1z M59.2,67.2c2.3,0,3.6-2,3.6-4.5s-1.2-4.5-3.6-4.5c-2.3,0-3.6,2-3.6,4.5S56.9,67.2,59.2,67.2z"></path> <path fill="#FFFFFF" d="M65.8,66.5c0.8,0.4,1.8,0.7,2.8,0.7c1.3,0,2.4-0.7,2.4-1.9c0-2.5-5.1-2.1-5.1-5.3c0-2.1,1.7-2.9,3.5-2.9 c0.6,0,1.7,0.1,2.6,0.5l-0.1,1.2c-0.7-0.3-1.6-0.5-2.4-0.5c-1.4,0-2.3,0.4-2.3,1.8c0,2,5.3,1.7,5.3,5.3c0,2.3-2.1,3-3.7,3 c-1,0-2.1-0.1-3-0.5L65.8,66.5z"></path> <path fill="#FFFFFF" d="M79.5,58.5H77v6.9c0,1,0.4,1.8,1.4,1.8c0.5,0,0.8-0.1,1.2-0.3l0.1,1.1c-0.3,0.1-1,0.3-1.6,0.3 c-2.4,0-2.4-1.6-2.4-3.6v-6.3h-2.1v-1.1h2.1v-2.6l1.3-0.5v3h2.4V58.5z"></path> <path fill="#FFFFFF" d="M83.2,54.5h-1.3v-1.8h1.3V54.5z M81.8,57.4h1.3v10.7h-1.3V57.4z"></path> <path fill="#FFFFFF" d="M86.5,59.9c0-0.8,0-1.7-0.1-2.5h1.3v1.9h0c0.4-1,1.2-2.2,3.5-2.2c2.6,0,3.7,1.8,3.7,4.1v6.8h-1.3v-6.5 c0-2-0.7-3.3-2.5-3.3c-2.4,0-3.2,2.1-3.2,3.9v5.9h-1.3V59.9z"></path> <path fill="#FFFFFF" d="M106.7,67.2c0,3-1.3,5.4-5,5.4c-1.4,0-2.7-0.4-3.2-0.6l0.1-1.3c0.8,0.4,2,0.8,3.2,0.8c3.4,0,3.7-2.5,3.7-5.5 h0c-0.7,1.6-1.9,2.1-3.3,2.1c-3.4,0-4.5-3-4.5-5.4c0-3.3,1.3-5.6,4.4-5.6c1.4,0,2.4,0.2,3.3,1.5h0v-1.2h1.3V67.2z M102.1,67 c2.4,0,3.3-2.3,3.3-4.2c0-2.6-0.8-4.5-3.2-4.5c-2.5,0-3.2,2.4-3.2,4.5C99,64.8,99.8,67,102.1,67z"></path> <path fill="#FFFFFF" d="M110.3,66.3h1.7v1.8h-1.7V66.3z"></path> <path fill="#FFFFFF" d="M121.7,53.4h7.2v1.3h-5.7v5.2h5.4v1.3h-5.4v5.7h6v1.3h-7.4V53.4z"></path> <path fill="#FFFFFF" d="M133.4,54.5H132v-1.8h1.3V54.5z M132,57.4h1.3v10.7H132V57.4z"></path> <path fill="#FFFFFF" d="M136.7,59.9c0-0.8,0-1.7-0.1-2.5h1.3v1.9h0c0.4-1,1.2-2.2,3.5-2.2c2.6,0,3.7,1.8,3.7,4.1v6.8h-1.3v-6.5 c0-2-0.7-3.3-2.5-3.3c-2.4,0-3.2,2.1-3.2,3.9v5.9h-1.3V59.9z"></path> <path fill="#FFFFFF" d="M149.3,58.5h-2.2v-1.1h2.2v-0.8c0-2.2,0.1-4.5,2.8-4.5c0.4,0,1,0.1,1.2,0.2l-0.1,1.2 c-0.3-0.1-0.7-0.2-1.1-0.2c-1.8,0-1.6,2-1.6,3.2v0.9h2.4v1.1h-2.4v9.6h-1.3V58.5z"></path> <path fill="#FFFFFF" d="M161.5,66.4L161.5,66.4c-0.6,1.3-2.1,2-3.4,2c-3,0-3.5-2.1-3.5-3c0-3.6,3.8-3.8,6.6-3.8h0.3V61 c0-1.8-0.7-2.8-2.4-2.8c-1.1,0-2.2,0.3-3.2,0.9v-1.3c0.8-0.4,2.2-0.7,3.2-0.7c2.6,0,3.8,1.2,3.8,4v4.7c0,0.9,0,1.5,0.1,2.2h-1.3 V66.4z M161.4,62.7H161c-2.3,0-5,0.2-5,2.6c0,1.4,1,1.9,2.2,1.9c3.1,0,3.2-2.7,3.2-3.9V62.7z"></path> <path fill="#FFFFFF" d="M172.9,58.8c-0.7-0.3-1.6-0.5-2.3-0.5c-2.6,0-4,1.9-4,4.5c0,2.4,1.5,4.5,3.9,4.5c0.8,0,1.6-0.2,2.4-0.5 L173,68c-0.9,0.3-1.7,0.4-2.8,0.4c-3.4,0-5.1-2.6-5.1-5.6c0-3.3,2.1-5.6,5.3-5.6c1.3,0,2.2,0.3,2.6,0.4L172.9,58.8z"></path> <path fill="#FFFFFF" d="M175.2,52.3h1.3v6.8h0c0.6-1.2,1.8-2.1,3.3-2.1c2.9,0,3.7,1.9,3.7,4.6v6.4h-1.3v-6.4c0-1.8-0.4-3.4-2.5-3.4 c-2.4,0-3.2,2.2-3.2,4.1v5.7h-1.3V52.3z"></path> <path fill="#FFFFFF" d="M194.1,54.5h-1.3v-1.8h1.3V54.5z M192.7,57.4h1.3v10.7h-1.3V57.4z"></path> <path fill="#FFFFFF" d="M197.4,59.9c0-0.8,0-1.7-0.1-2.5h1.3v1.9h0c0.4-1,1.2-2.2,3.5-2.2c2.6,0,3.7,1.8,3.7,4.1v6.8h-1.3v-6.5 c0-2-0.7-3.3-2.5-3.3c-2.4,0-3.2,2.1-3.2,3.9v5.9h-1.3V59.9z"></path> <path fill="#FFFFFF" d="M213.7,58.5h-2.4v6.9c0,1,0.4,1.8,1.4,1.8c0.5,0,0.8-0.1,1.2-0.3L214,68c-0.3,0.1-1,0.3-1.6,0.3 c-2.4,0-2.4-1.6-2.4-3.6v-6.3h-2.1v-1.1h2.1v-2.6l1.3-0.5v3h2.4V58.5z"></path> <path fill="#FFFFFF" d="M223.3,67.8c-0.9,0.4-2.1,0.6-3.1,0.6c-3.6,0-4.9-2.4-4.9-5.6c0-3.3,1.8-5.6,4.5-5.6c3,0,4.3,2.4,4.3,5.3 v0.7h-7.3c0,2.3,1.2,4.1,3.5,4.1c1,0,2.4-0.4,3-0.8V67.8z M222.6,62c0-1.9-0.8-3.7-2.7-3.7c-2,0-3.2,2-3.2,3.7H222.6z"></path> <path fill="#FFFFFF" d="M226.6,52.3h1.3v15.8h-1.3V52.3z"></path> <path fill="#FFFFFF" d="M231.3,52.3h1.3v15.8h-1.3V52.3z"></path> <path fill="#FFFFFF" d="M237.2,54.5h-1.3v-1.8h1.3V54.5z M235.9,57.4h1.3v10.7h-1.3V57.4z"></path> <path fill="#FFFFFF" d="M249.1,67.2c0,3-1.3,5.4-5,5.4c-1.4,0-2.7-0.4-3.2-0.6l0.1-1.3c0.8,0.4,2,0.8,3.2,0.8c3.4,0,3.7-2.5,3.7-5.5 h0c-0.7,1.6-1.9,2.1-3.3,2.1c-3.4,0-4.5-3-4.5-5.4c0-3.3,1.3-5.6,4.4-5.6c1.4,0,2.4,0.2,3.3,1.5h0v-1.2h1.3V67.2z M244.5,67 c2.4,0,3.3-2.3,3.3-4.2c0-2.6-0.8-4.5-3.2-4.5c-2.5,0-3.2,2.4-3.2,4.5C241.4,64.8,242.2,67,244.5,67z"></path> <path fill="#FFFFFF" d="M259.5,67.8c-0.9,0.4-2.1,0.6-3.1,0.6c-3.6,0-4.9-2.4-4.9-5.6c0-3.3,1.8-5.6,4.5-5.6c3,0,4.3,2.4,4.3,5.3 v0.7h-7.3c0,2.3,1.2,4.1,3.5,4.1c1,0,2.4-0.4,3-0.8V67.8z M258.8,62c0-1.9-0.8-3.7-2.7-3.7c-2,0-3.2,2-3.2,3.7H258.8z"></path> <path fill="#FFFFFF" d="M262.8,59.9c0-0.8,0-1.7-0.1-2.5h1.3v1.9h0c0.4-1,1.2-2.2,3.5-2.2c2.6,0,3.7,1.8,3.7,4.1v6.8h-1.3v-6.5 c0-2-0.7-3.3-2.5-3.3c-2.4,0-3.2,2.1-3.2,3.9v5.9h-1.3V59.9z"></path> <path fill="#FFFFFF" d="M279.1,58.5h-2.4v6.9c0,1,0.4,1.8,1.4,1.8c0.5,0,0.8-0.1,1.2-0.3l0.1,1.1c-0.3,0.1-1,0.3-1.6,0.3 c-2.4,0-2.4-1.6-2.4-3.6v-6.3h-2.1v-1.1h2.1v-2.6l1.3-0.5v3h2.4V58.5z"></path> <path fill="#FFFFFF" d="M281.8,66.3h1.7v1.8h-1.7V66.3z"></path> </svg> 